<svg width="72" height="72" viewBox="0 0 72 72" fill="none" xmlns="http://www.w3.org/2000/svg">
<path d="M63 27H58.74L47.604 7.51199L45 8.99999L42.396 10.488L51.831 27H20.169L29.607 10.488L24.396 7.51199L13.26 27H8.99999C8.53888 27.0005 8.08408 27.1072 7.67085 27.3118C7.25762 27.5164 6.89705 27.8134 6.6171 28.1798C6.33715 28.5462 6.14533 28.9722 6.05653 29.4246C5.96772 29.8771 5.9843 30.344 6.10499 30.789L14.502 61.581C14.8511 62.8494 15.6063 63.9684 16.6521 64.7665C17.6979 65.5647 18.9764 65.9979 20.292 66H51.711C54.405 66 56.787 64.185 57.501 61.575L65.898 30.786C66.0201 30.3408 66.0376 29.8734 65.9492 29.4203C65.8607 28.9672 65.6687 28.5407 65.3881 28.1742C65.1075 27.8076 64.7459 27.5109 64.3317 27.3072C63.9174 27.1035 63.4616 26.9984 63 27ZM51.708 60H20.292L12.93 33H59.07L51.708 60Z" fill="#7785DB"/>
<path d="M27 39H33V54H27V39ZM39 39H45V54H39V39Z" fill="#7785DB"/>
</svg>
